<mxfile host="app.diagrams.net" modified="2023-04-12T20:11:56.529Z" agent="Mozilla/5.0 (Macintosh; Intel Mac OS X 10_15_7) AppleWebKit/537.36 (KHTML, like Gecko) Chrome/111.0.0.0 Safari/537.36" etag="IOG-PU_2UUTs4-T20xOX" version="21.1.7" type="github">
  <diagram id="C5RBs43oDa-KdzZeNtuy" name="Page-1">
    <mxGraphModel dx="778" dy="1598" grid="1" gridSize="10" guides="1" tooltips="1" connect="1" arrows="1" fold="1" page="1" pageScale="1" pageWidth="827" pageHeight="1169" math="0" shadow="0">
      <root>
        <mxCell id="WIyWlLk6GJQsqaUBKTNV-0" />
        <mxCell id="WIyWlLk6GJQsqaUBKTNV-1" parent="WIyWlLk6GJQsqaUBKTNV-0" />
        <mxCell id="smwx4mjXbQ6Rt5jijDb6-8" value="Entity" style="ellipse" vertex="1" parent="WIyWlLk6GJQsqaUBKTNV-1">
          <mxGeometry x="375" y="-120" width="80" height="30" as="geometry" />
        </mxCell>
        <mxCell id="smwx4mjXbQ6Rt5jijDb6-22" value="" style="edgeStyle=orthogonalEdgeStyle;rounded=0;orthogonalLoop=1;jettySize=auto;html=1;" edge="1" parent="WIyWlLk6GJQsqaUBKTNV-1" source="smwx4mjXbQ6Rt5jijDb6-9" target="smwx4mjXbQ6Rt5jijDb6-21">
          <mxGeometry relative="1" as="geometry">
            <Array as="points">
              <mxPoint x="250" y="80" />
              <mxPoint x="390" y="80" />
            </Array>
          </mxGeometry>
        </mxCell>
        <mxCell id="smwx4mjXbQ6Rt5jijDb6-23" value="has attribute" style="edgeLabel;html=1;align=center;verticalAlign=middle;resizable=0;points=[];" vertex="1" connectable="0" parent="smwx4mjXbQ6Rt5jijDb6-22">
          <mxGeometry x="-0.1485" y="1" relative="1" as="geometry">
            <mxPoint x="-12" as="offset" />
          </mxGeometry>
        </mxCell>
        <mxCell id="smwx4mjXbQ6Rt5jijDb6-9" value="Enemy" style="rounded=1;" vertex="1" parent="WIyWlLk6GJQsqaUBKTNV-1">
          <mxGeometry x="210" y="10" width="80" height="30" as="geometry" />
        </mxCell>
        <mxCell id="smwx4mjXbQ6Rt5jijDb6-10" value="" style="curved=1;noEdgeStyle=1;orthogonal=1;" edge="1" source="smwx4mjXbQ6Rt5jijDb6-8" target="smwx4mjXbQ6Rt5jijDb6-9" parent="WIyWlLk6GJQsqaUBKTNV-1">
          <mxGeometry relative="1" as="geometry">
            <Array as="points">
              <mxPoint x="388.75" y="-78" />
              <mxPoint x="250" y="-2" />
            </Array>
          </mxGeometry>
        </mxCell>
        <mxCell id="smwx4mjXbQ6Rt5jijDb6-11" value="Defense&#xa;" style="rounded=1;verticalAlign=top;align=center;" vertex="1" parent="WIyWlLk6GJQsqaUBKTNV-1">
          <mxGeometry x="430" y="10" width="80" height="30" as="geometry" />
        </mxCell>
        <mxCell id="smwx4mjXbQ6Rt5jijDb6-12" value="" style="curved=1;noEdgeStyle=1;orthogonal=1;" edge="1" target="smwx4mjXbQ6Rt5jijDb6-11" parent="WIyWlLk6GJQsqaUBKTNV-1">
          <mxGeometry relative="1" as="geometry">
            <mxPoint x="420" y="-90" as="sourcePoint" />
            <Array as="points">
              <mxPoint x="424" y="-70" />
              <mxPoint x="460" y="-20" />
            </Array>
          </mxGeometry>
        </mxCell>
        <mxCell id="smwx4mjXbQ6Rt5jijDb6-24" style="edgeStyle=orthogonalEdgeStyle;rounded=0;orthogonalLoop=1;jettySize=auto;html=1;exitX=0.5;exitY=1;exitDx=0;exitDy=0;entryX=0.5;entryY=0;entryDx=0;entryDy=0;" edge="1" parent="WIyWlLk6GJQsqaUBKTNV-1" source="smwx4mjXbQ6Rt5jijDb6-13" target="smwx4mjXbQ6Rt5jijDb6-21">
          <mxGeometry relative="1" as="geometry">
            <Array as="points">
              <mxPoint x="350" y="80" />
              <mxPoint x="390" y="80" />
            </Array>
          </mxGeometry>
        </mxCell>
        <mxCell id="smwx4mjXbQ6Rt5jijDb6-13" value="Player" style="rounded=1;" vertex="1" parent="WIyWlLk6GJQsqaUBKTNV-1">
          <mxGeometry x="310" y="10" width="80" height="30" as="geometry" />
        </mxCell>
        <mxCell id="smwx4mjXbQ6Rt5jijDb6-14" value="" style="curved=1;noEdgeStyle=1;orthogonal=1;exitX=0.39;exitY=0.997;exitDx=0;exitDy=0;exitPerimeter=0;" edge="1" source="smwx4mjXbQ6Rt5jijDb6-8" target="smwx4mjXbQ6Rt5jijDb6-13" parent="WIyWlLk6GJQsqaUBKTNV-1">
          <mxGeometry relative="1" as="geometry">
            <Array as="points">
              <mxPoint x="400" y="-76" />
              <mxPoint x="350" y="-10" />
            </Array>
          </mxGeometry>
        </mxCell>
        <mxCell id="smwx4mjXbQ6Rt5jijDb6-15" value="Projectile" style="rounded=1;" vertex="1" parent="WIyWlLk6GJQsqaUBKTNV-1">
          <mxGeometry x="540" y="10" width="80" height="30" as="geometry" />
        </mxCell>
        <mxCell id="smwx4mjXbQ6Rt5jijDb6-16" value="" style="curved=1;noEdgeStyle=1;orthogonal=1;" edge="1" source="smwx4mjXbQ6Rt5jijDb6-8" target="smwx4mjXbQ6Rt5jijDb6-15" parent="WIyWlLk6GJQsqaUBKTNV-1">
          <mxGeometry relative="1" as="geometry">
            <Array as="points">
              <mxPoint x="441.25" y="-78" />
              <mxPoint x="580" y="-2" />
            </Array>
          </mxGeometry>
        </mxCell>
        <mxCell id="smwx4mjXbQ6Rt5jijDb6-21" value="canDie" style="rounded=1;" vertex="1" parent="WIyWlLk6GJQsqaUBKTNV-1">
          <mxGeometry x="350" y="140" width="80" height="30" as="geometry" />
        </mxCell>
      </root>
    </mxGraphModel>
  </diagram>
</mxfile>
